<svg width="64" height="64" viewBox="0 0 64 64" fill="none" xmlns="http://www.w3.org/2000/svg"><rect width="64" height="64" fill="#0d1117" rx="8"/><rect x="2" y="2" width="60" height="60" rx="6" fill="none" stroke="#21262d" stroke-width="1"/><path d="M 14 20 L 10 20 L 10 44 L 14 44" stroke="#2dd4bf" stroke-width="2" stroke-linecap="round" opacity="0.6"/><path d="M 50 20 L 54 20 L 54 44 L 50 44" stroke="#2dd4bf" stroke-width="2" stroke-linecap="round" opacity="0.6"/><path d="M 28 28 C 28 26 26 24 22 24 C 18 24 16 26 16 28 C 16 30 18 32 22 34 C 26 36 28 38 28 42 C 28 46 26 48 22 48 C 18 48 16 46 16 44" stroke="#e8ecf2" stroke-width="4.5" stroke-linecap="round" fill="none"/><path d="M 34 24 L 40 48 L 46 24" stroke="#e8ecf2" stroke-width="4.5" stroke-linecap="round" stroke-linejoin="round" fill="none"/></svg>