<svg width="1200" height="630" viewBox="0 0 1200 630" fill="none" xmlns="http://www.w3.org/2000/svg"><rect width="1200" height="630" fill="hsl(215, 25%, 6%)"/><defs><linearGradient id="grad1" x1="0%" y1="0%" x2="100%" y2="100%"><stop offset="0%" style="stop-color: rgb(23, 54, 50); stop-opacity: 0.3;"/><stop offset="100%" style="stop-color: rgb(23, 54, 50); stop-opacity: 0;"/></linearGradient><linearGradient id="grad2" x1="100%" y1="0%" x2="0%" y2="100%"><stop offset="0%" style="stop-color: rgb(23, 54, 50); stop-opacity: 0.2;"/><stop offset="100%" style="stop-color: rgb(23, 54, 50); stop-opacity: 0;"/></linearGradient></defs><rect width="1200" height="630" fill="url(#grad1)"/><rect width="1200" height="630" fill="url(#grad2)"/><g opacity="0.15"><circle cx="150" cy="150" r="4" fill="hsl(173, 70%, 50%)"/><circle cx="250" cy="200" r="4" fill="hsl(173, 70%, 50%)"/><circle cx="200" cy="280" r="4" fill="hsl(173, 70%, 50%)"/><circle cx="120" cy="350" r="4" fill="hsl(173, 70%, 50%)"/><circle cx="180" cy="450" r="4" fill="hsl(173, 70%, 50%)"/><line x1="150" y1="150" x2="250" y2="200" stroke="hsl(173, 70%, 50%)" stroke-width="1" opacity="0.5"/><line x1="250" y1="200" x2="200" y2="280" stroke="hsl(173, 70%, 50%)" stroke-width="1" opacity="0.5"/><line x1="200" y1="280" x2="120" y2="350" stroke="hsl(173, 70%, 50%)" stroke-width="1" opacity="0.5"/><line x1="120" y1="350" x2="180" y2="450" stroke="hsl(173, 70%, 50%)" stroke-width="1" opacity="0.5"/><line x1="150" y1="150" x2="200" y2="280" stroke="hsl(173, 70%, 50%)" stroke-width="0.5" opacity="0.3"/></g><g opacity="0.15"><circle cx="1050" cy="180" r="4" fill="hsl(173, 70%, 50%)"/><circle cx="950" cy="250" r="4" fill="hsl(173, 70%, 50%)"/><circle cx="1000" cy="320" r="4" fill="hsl(173, 70%, 50%)"/><circle cx="1080" cy="400" r="4" fill="hsl(173, 70%, 50%)"/><circle cx="1020" cy="480" r="4" fill="hsl(173, 70%, 50%)"/><line x1="1050" y1="180" x2="950" y2="250" stroke="hsl(173, 70%, 50%)" stroke-width="1" opacity="0.5"/><line x1="950" y1="250" x2="1000" y2="320" stroke="hsl(173, 70%, 50%)" stroke-width="1" opacity="0.5"/><line x1="1000" y1="320" x2="1080" y2="400" stroke="hsl(173, 70%, 50%)" stroke-width="1" opacity="0.5"/><line x1="1080" y1="400" x2="1020" y2="480" stroke="hsl(173, 70%, 50%)" stroke-width="1" opacity="0.5"/></g><rect x="100" y="140" width="1000" height="350" rx="16" fill="hsl(215, 25%, 8%)" stroke="hsl(215, 20%, 15%)" stroke-width="2"/><g transform="translate(150, 200)"><rect width="120" height="120" rx="12" fill="hsl(173, 40%, 15%)"/><rect x="15" y="20" width="90" height="80" rx="6" fill="hsl(215, 25%, 6%)" stroke="hsl(215, 20%, 15%)" stroke-width="1.5"/><circle cx="23" cy="28" r="3" fill="hsl(173, 70%, 50%)" opacity="0.6"/><circle cx="33" cy="28" r="3" fill="hsl(173, 70%, 50%)" opacity="0.4"/><circle cx="43" cy="28" r="3" fill="hsl(173, 70%, 50%)" opacity="0.3"/><path d="M 30 50 C 30 48 28 46 24 46 C 20 46 18 48 18 50 C 18 52 20 54 24 56 C 28 58 30 60 30 64 C 30 68 28 70 24 70 C 20 70 18 68 18 66" stroke="hsl(173, 70%, 50%)" stroke-width="3" stroke-linecap="round" fill="none"/><path d="M 34 46 L 40 70 L 46 46" stroke="hsl(173, 70%, 50%)" stroke-width="3" stroke-linecap="round" stroke-linejoin="round" fill="none"/><path d="M 50 58 L 52 58" stroke="hsl(173, 70%, 50%)" stroke-width="3" stroke-linecap="round"/></g><g><text x="310" y="260" fill="hsl(210, 20%, 95%)" font-size="68" font-weight="700" font-family="Inter, sans-serif">Santhanu Vinod</text><text x="310" y="320" fill="hsl(215, 12%, 55%)" font-size="36" font-weight="500" font-family="Inter, sans-serif">Software Engineer</text><g transform="translate(310, 360)"><rect x="0" y="-28" width="8" height="40" rx="4" fill="hsl(173, 70%, 50%)"/><text x="24" y="0" fill="hsl(173, 70%, 50%)" font-size="32" font-weight="600" font-family="Inter, sans-serif">Distributed Systems</text></g><g transform="translate(310, 430)"><rect x="0" y="-22" width="auto" height="32" rx="16" fill="hsl(173, 40%, 15%)"/><text x="16" y="0" fill="hsl(215, 12%, 55%)" font-size="20" font-weight="500" font-family="Inter, sans-serif">Scalability • Concurrency • System Design</text></g></g><rect x="100" y="490" width="1000" height="4" rx="2" fill="hsl(173, 70%, 50%)" opacity="0.3"/><g opacity="0.2"><path d="M 120 160 L 110 160 L 110 200 L 120 200" stroke="hsl(173, 70%, 50%)" stroke-width="2" stroke-linecap="round" fill="none"/><path d="M 1080 160 L 1090 160 L 1090 200 L 1080 200" stroke="hsl(173, 70%, 50%)" stroke-width="2" stroke-linecap="round" fill="none"/></g></svg>